<svg xmlns="http://www.w3.org/2000/svg" width="58.806" height="58.807" viewBox="0 0 58.806 58.807"><g transform="translate(58.806 29.403) rotate(135)"><path d="M22.867,0a2.079,2.079,0,0,1,2.079,2.079V22.867a2.079,2.079,0,0,1-2.079,2.079H2.079a2.079,2.079,0,0,1,0-4.158H20.788V2.079A2.079,2.079,0,0,1,22.867,0Z" transform="translate(16.633 16.633)" fill="#fff" fill-rule="evenodd"/><path d="M.611.611a2.079,2.079,0,0,1,2.944,0L40.973,38.029a2.081,2.081,0,1,1-2.944,2.944L.611,3.554a2.079,2.079,0,0,1,0-2.944Z" transform="translate(0 0)" fill="#fff" fill-rule="evenodd"/></g></svg>