<svg xmlns="http://www.w3.org/2000/svg" width="15.696" height="15.696" viewBox="0 0 15.696 15.696"><g transform="translate(0 7.848) rotate(-45)"><path d="M6.1,0a.555.555,0,0,1,.555.555V6.1a.555.555,0,0,1-.555.555H.555a.555.555,0,0,1,0-1.11H5.549V.555A.555.555,0,0,1,6.1,0Z" transform="translate(4.44 4.44)" fill="#010101" fill-rule="evenodd"/><path d="M.163.163a.555.555,0,0,1,.786,0l9.987,9.987a.556.556,0,1,1-.786.786L.163.949a.555.555,0,0,1,0-.786Z" transform="translate(0 0)" fill="#010101" fill-rule="evenodd"/></g></svg>