<svg xmlns="http://www.w3.org/2000/svg" width="22.781" height="22.781" viewBox="0 0 22.781 22.781"><g transform="translate(0 11.39) rotate(-45)"><path d="M8.858,0a.805.805,0,0,1,.805.805V8.858a.805.805,0,0,1-.805.805H.805a.805.805,0,0,1,0-1.611H8.053V.805A.805.805,0,0,1,8.858,0Z" transform="translate(6.444 6.444)" fill="#e09d44" fill-rule="evenodd"/><path d="M.237.237a.805.805,0,0,1,1.14,0l14.5,14.5a.806.806,0,1,1-1.14,1.14L.237,1.377a.805.805,0,0,1,0-1.14Z" transform="translate(0 0)" fill="#e09d44" fill-rule="evenodd"/></g></svg>